# xmcd
#
# Track frame offsets:
# 150
# 12235
# 29635
# 45515
# 58025
# 90412
# 109655
# 123467
# 146452
# 160665
# 176005
# 212102
#
# Disc length: 2966 seconds
#
#
# Revision: 0
# Processed by: cddbd v1.5.2PL0 Copyright (c) Steve Scherf et al.
# Submitted via: FreeRIP 2.91 
#
DISCID=9d0b940c
DTITLE=Various Artist - High Time
DYEAR=1998
DGENRE=Alternative
TTITLE0=We Don't Live Just For Us
TTITLE1=We Don't Live Just For Us
TTITLE2=High Time
TTITLE3=Time Drop
TTITLE4=Rainforest
TTITLE5=It's Nothing
TTITLE6=The Blue S
TTITLE7=Billion Years
TTITLE8=Creation
TTITLE9=Radio Activity
TTITLE10=Rainforest (The Jungle Beat)
TTITLE11=See You Again
EXTD=
EXTT0=
EXTT1=
EXTT2=
EXTT3=
EXTT4=
EXTT5=
EXTT6=
EXTT7=
EXTT8=
EXTT9=
EXTT10=
EXTT11=
PLAYORDER=
